<svg width="60" height="60" viewBox="0 0 60 60" fill="none" xmlns="http://www.w3.org/2000/svg">
<path d="M12.3362 38.4696C11.7097 38.4696 11.0972 38.6554 10.5763 39.0035C10.0554 39.3515 9.64935 39.8463 9.40959 40.4251C9.16983 41.004 9.1071 41.6409 9.22933 42.2554C9.35156 42.8699 9.65326 43.4343 10.0963 43.8773C10.5393 44.3203 11.1037 44.6221 11.7182 44.7443C12.3327 44.8665 12.9696 44.8038 13.5485 44.564C14.1273 44.3243 14.6221 43.9182 14.9701 43.3973C15.3182 42.8764 15.504 42.2639 15.504 41.6374C15.504 40.7972 15.1702 39.9915 14.5762 39.3974C13.9821 38.8034 13.1764 38.4696 12.3362 38.4696ZM12.3362 43.2213C12.023 43.2213 11.7167 43.1284 11.4563 42.9543C11.1958 42.7803 10.9928 42.5329 10.8729 42.2435C10.753 41.9541 10.7217 41.6356 10.7828 41.3284C10.8439 41.0211 10.9947 40.7389 11.2163 40.5174C11.4378 40.2959 11.72 40.145 12.0272 40.0839C12.3345 40.0228 12.6529 40.0542 12.9424 40.1741C13.2318 40.2939 13.4791 40.4969 13.6532 40.7574C13.8272 41.0179 13.9201 41.3241 13.9201 41.6374C13.9201 42.0574 13.7532 42.4603 13.4562 42.7574C13.1592 43.0544 12.7563 43.2213 12.3362 43.2213Z" fill="#3F9BDE"/>
<path d="M47.1817 44.8052C47.8082 44.8052 48.4207 44.6194 48.9416 44.2713C49.4625 43.9232 49.8686 43.4285 50.1083 42.8496C50.3481 42.2708 50.4108 41.6339 50.2886 41.0194C50.1664 40.4049 49.8647 39.8404 49.4216 39.3974C48.9786 38.9544 48.4142 38.6527 47.7997 38.5305C47.1852 38.4082 46.5483 38.471 45.9694 38.7107C45.3906 38.9505 44.8959 39.3565 44.5478 39.8775C44.1997 40.3984 44.0139 41.0109 44.0139 41.6374C44.0139 42.4775 44.3477 43.2833 44.9417 43.8773C45.5358 44.4714 46.3415 44.8052 47.1817 44.8052ZM47.1817 40.0535C47.495 40.0535 47.8012 40.1464 48.0616 40.3204C48.3221 40.4945 48.5251 40.7418 48.645 41.0313C48.7649 41.3207 48.7963 41.6391 48.7351 41.9464C48.674 42.2536 48.5232 42.5358 48.3017 42.7574C48.0802 42.9789 47.7979 43.1297 47.4907 43.1908C47.1834 43.2519 46.865 43.2206 46.5756 43.1007C46.2861 42.9808 46.0388 42.7778 45.8647 42.5173C45.6907 42.2569 45.5978 41.9506 45.5978 41.6374C45.5978 41.2173 45.7647 40.8144 46.0617 40.5174C46.3587 40.2204 46.7616 40.0535 47.1817 40.0535Z" fill="#3F9BDE"/>
<path d="M52.7246 29.7592H40.8455C40.8455 25.6458 38.396 20.3707 35.2116 17.3368C35.5185 17.0912 35.759 16.7727 35.911 16.4102C36.063 16.0477 36.1216 15.6529 36.0816 15.2619C36.0416 14.8709 35.9042 14.4962 35.6819 14.172C35.4596 13.8478 35.1596 13.5846 34.8093 13.4064L36.8485 7.03439C36.8937 6.89297 36.8982 6.74171 36.8616 6.59785C36.8249 6.454 36.7485 6.32334 36.6412 6.22079C36.5339 6.11824 36.3999 6.04793 36.2545 6.01787C36.1091 5.98781 35.9582 5.99922 35.819 6.0508L29.6696 8.35614L24.3271 7.59271C24.1974 7.57408 24.0651 7.58793 23.9421 7.63302C23.819 7.67811 23.7091 7.75302 23.6221 7.85106C23.5351 7.94909 23.4739 8.06717 23.4438 8.19471C23.4137 8.32225 23.4157 8.45527 23.4497 8.58184L24.7405 13.3881C24.3846 13.5624 24.0785 13.8238 23.8506 14.148C23.6227 14.4722 23.4804 14.8488 23.437 15.2427C23.3935 15.6366 23.4503 16.0351 23.602 16.4012C23.7538 16.7673 23.9956 17.0891 24.3049 17.3368C21.1206 20.3707 18.6711 25.6458 18.6711 29.7592H6.79194C6.58191 29.7592 6.38047 29.8426 6.23195 29.9911C6.08344 30.1396 6 30.3411 6 30.5511V52.7255C6 52.9355 6.08344 53.137 6.23195 53.2855C6.38047 53.434 6.58191 53.5174 6.79194 53.5174H52.7246C52.9346 53.5174 53.1361 53.434 53.2846 53.2855C53.4331 53.137 53.5165 52.9355 53.5165 52.7255V30.5511C53.5165 30.3411 53.4331 30.1396 53.2846 29.9911C53.1361 29.8426 52.9346 29.7592 52.7246 29.7592ZM51.9326 33.6064C51.3884 33.4641 50.8918 33.1794 50.494 32.7816C50.0963 32.3839 49.8116 31.8873 49.6693 31.343H51.9326V33.6064ZM25.7986 16.2961C25.5885 16.2961 25.3871 16.2127 25.2386 16.0642C25.09 15.9157 25.0066 15.7142 25.0066 15.5042C25.0066 15.2942 25.09 15.0927 25.2386 14.9442C25.3871 14.7957 25.5885 14.7123 25.7986 14.7123H33.718C33.928 14.7123 34.1294 14.7957 34.278 14.9442C34.4265 15.0927 34.5099 15.2942 34.5099 15.5042C34.5099 15.7142 34.4265 15.9157 34.278 16.0642C34.1294 16.2127 33.928 16.2961 33.718 16.2961H25.7986ZM29.6458 9.95269C29.7774 9.97143 29.9116 9.957 30.0362 9.91072L34.8409 8.10826L33.2349 13.1284H26.3109L25.2909 9.32706L29.6458 9.95269ZM20.255 29.7592C20.255 25.7995 22.904 20.4356 26.0829 17.88H33.4337C36.6125 20.4356 39.2616 25.7995 39.2616 29.7592V32.9269C39.2616 36.3022 36.6711 39.2625 33.718 39.2625H25.7986C22.8454 39.2625 20.255 36.3022 20.255 32.9269V29.7592ZM36.8857 41.6383C36.8886 42.6422 36.6793 43.6354 36.2716 44.5528C35.8639 45.4702 35.267 46.2912 34.52 46.9618C33.773 47.6325 32.8927 48.1379 31.9368 48.4447C30.9809 48.7516 29.971 48.853 28.9732 48.7424C27.9754 48.6319 27.0122 48.3117 26.1467 47.803C25.2812 47.2943 24.5329 46.6085 23.9509 45.7905C23.3689 44.9726 22.9662 44.0409 22.7693 43.0564C22.5724 42.072 22.5856 41.0571 22.8082 40.0782C23.7267 40.576 24.7538 40.8398 25.7986 40.8464H33.718C34.7627 40.8398 35.7898 40.576 36.7083 40.0782C36.8244 40.5902 36.8838 41.1133 36.8857 41.6383ZM21.4247 39.1199C21.0282 40.422 20.9423 41.7988 21.174 43.14C21.4056 44.4812 21.9483 45.7495 22.7585 46.8431C23.5687 47.9367 24.6239 48.8253 25.8395 49.4376C27.0551 50.0499 28.3972 50.3688 29.7583 50.3688C31.1193 50.3688 32.4615 50.0499 33.677 49.4376C34.8926 48.8253 35.9478 47.9367 36.758 46.8431C37.5682 45.7495 38.1109 44.4812 38.3425 43.14C38.5742 41.7988 38.4883 40.422 38.0919 39.1199C38.9614 38.34 39.6562 37.3851 40.1307 36.3178C40.6053 35.2505 40.8488 34.095 40.8455 32.9269V31.343H48.0442C48.2101 32.3139 48.6733 33.2094 49.3698 33.9059C50.0663 34.6024 50.9617 35.0655 51.9326 35.2315V48.0451C50.9617 48.211 50.0663 48.6742 49.3698 49.3707C48.6733 50.0672 48.2101 50.9626 48.0442 51.9335H11.4723C11.3064 50.9626 10.8432 50.0672 10.1467 49.3707C9.45026 48.6742 8.55478 48.211 7.58388 48.0451V35.2315C8.55478 35.0655 9.45026 34.6024 10.1467 33.9059C10.8432 33.2094 11.3064 32.3139 11.4723 31.343H18.6711V32.9269C18.6677 34.095 18.9112 35.2505 19.3858 36.3178C19.8603 37.3851 20.5551 38.34 21.4247 39.1199ZM9.84725 31.343C9.70494 31.8873 9.42026 32.3839 9.02247 32.7816C8.62469 33.1794 8.12814 33.4641 7.58388 33.6064V31.343H9.84725ZM7.58388 49.6702C8.12814 49.8125 8.62469 50.0972 9.02247 50.4949C9.42026 50.8927 9.70494 51.3893 9.84725 51.9335H7.58388V49.6702ZM49.6693 51.9335C49.8116 51.3893 50.0963 50.8927 50.494 50.4949C50.8918 50.0972 51.3884 49.8125 51.9326 49.6702V51.9335H49.6693Z" fill="#3F9BDE"/>
<path d="M6.05662 14.2046C6.11405 14.3534 6.21509 14.4814 6.34651 14.5719C6.47793 14.6623 6.63359 14.7109 6.79312 14.7114L9.16895 14.7114L9.16895 19.4631C9.16895 19.6731 9.25239 19.8745 9.4009 20.023C9.54942 20.1716 9.75086 20.255 9.96089 20.255L19.4642 20.255C19.6742 20.255 19.8757 20.1716 20.0242 20.0231C20.1727 19.8745 20.2561 19.6731 20.2561 19.4631L20.2561 14.7114L22.632 14.7114C22.7915 14.7109 22.9472 14.6623 23.0786 14.5719C23.21 14.4814 23.311 14.3534 23.3685 14.2046C23.4277 14.0558 23.4397 13.8924 23.4029 13.7365C23.3661 13.5807 23.2822 13.4399 23.1626 13.3334L15.2431 6.20595C15.0982 6.07345 14.9089 5.99997 14.7125 5.99997C14.5162 5.99997 14.3269 6.07345 14.1819 6.20595L6.26252 13.3334C6.14293 13.4399 6.05902 13.5807 6.02218 13.7365C5.98534 13.8924 5.99737 14.0558 6.05662 14.2046ZM14.7125 7.86111L20.565 13.1275L19.4642 13.1275C19.2542 13.1275 19.0527 13.211 18.9042 13.3595C18.7557 13.508 18.6723 13.7094 18.6723 13.9195L18.6723 18.6711L10.7528 18.6711L10.7528 13.9195C10.7528 13.7094 10.6694 13.508 10.5209 13.3595C10.3724 13.211 10.1709 13.1275 9.96089 13.1275L8.86009 13.1275L14.7125 7.86111Z" fill="#3F9BDE"/>
<path d="M36.1499 14.2046C36.2073 14.3534 36.3084 14.4814 36.4398 14.5719C36.5712 14.6623 36.7269 14.7109 36.8864 14.7114L39.2622 14.7114L39.2622 19.4631C39.2622 19.6731 39.3457 19.8745 39.4942 20.023C39.6427 20.1716 39.8441 20.255 40.0542 20.255L49.5575 20.255C49.7675 20.255 49.9689 20.1716 50.1174 20.0231C50.266 19.8745 50.3494 19.6731 50.3494 19.4631L50.3494 14.7114L52.7252 14.7114C52.8848 14.7109 53.0404 14.6623 53.1718 14.5719C53.3033 14.4814 53.4043 14.3534 53.4617 14.2046C53.521 14.0558 53.533 13.8924 53.4962 13.7365C53.4593 13.5807 53.3754 13.4399 53.2558 13.3334L45.3364 6.20595C45.1915 6.07345 45.0022 5.99997 44.8058 5.99997C44.6094 5.99997 44.4202 6.07345 44.2752 6.20595L36.3558 13.3334C36.2362 13.4399 36.1523 13.5807 36.1154 13.7365C36.0786 13.8924 36.0906 14.0558 36.1499 14.2046ZM44.8058 7.86111L50.6583 13.1275L49.5575 13.1275C49.3474 13.1275 49.146 13.211 48.9975 13.3595C48.849 13.508 48.7655 13.7094 48.7655 13.9195L48.7655 18.6711L40.8461 18.6711L40.8461 13.9195C40.8461 13.7094 40.7627 13.508 40.6141 13.3595C40.4656 13.211 40.2642 13.1275 40.0542 13.1275L38.9534 13.1275L44.8058 7.86111Z" fill="#3F9BDE"/>
<path d="M28.967 28.9663H30.5509C31.181 28.9663 31.7853 29.2166 32.2309 29.6622C32.6764 30.1077 32.9267 30.712 32.9267 31.3421C32.9267 31.9723 32.6764 32.5766 32.2309 33.0221C31.7853 33.4677 31.181 33.718 30.5509 33.718H25.7993V35.3019H28.967V36.8857H30.5509V35.3019C31.6011 35.3019 32.6083 34.8847 33.3509 34.1421C34.0934 33.3995 34.5106 32.3923 34.5106 31.3421C34.5106 30.292 34.0934 29.2848 33.3509 28.5422C32.6083 27.7996 31.6011 27.3824 30.5509 27.3824H28.967C28.3369 27.3824 27.7326 27.1321 27.2871 26.6866C26.8415 26.241 26.5912 25.6367 26.5912 25.0066C26.5912 24.3765 26.8415 23.7722 27.2871 23.3266C27.7326 22.8811 28.3369 22.6308 28.967 22.6308H33.7187V21.0469H30.5509V19.463H28.967V21.0469C27.9169 21.0469 26.9097 21.4641 26.1671 22.2067C25.4245 22.9493 25.0073 23.9564 25.0073 25.0066C25.0073 26.0568 25.4245 27.064 26.1671 27.8065C26.9097 28.5491 27.9169 28.9663 28.967 28.9663Z" fill="#3F9BDE"/>
</svg>
