<svg width="131" height="37" viewBox="0 0 131 37" fill="none" xmlns="http://www.w3.org/2000/svg">
<path d="M17.5157 25.7365L20.0562 23.5675L21.5102 16.4293L21.5701 16.1337L24.8536 0L18.4624 0.838843C17.79 0.973661 17.1707 1.29924 16.6784 1.77667C16.1861 2.25409 15.8416 2.86318 15.6863 3.53113L14.2762 10.4416L15.7582 13.4534L13.7609 13.054L12.4108 19.6449L12.3469 19.9405L9.06738 36.0503L15.4586 35.2114C16.1348 35.0805 16.7587 34.7567 17.2549 34.2789C17.7511 33.8012 18.0983 33.19 18.2547 32.5191L19.5529 26.128L17.5157 25.7365Z" fill="#388389"/>
<path d="M27.5338 7.76133C26.8585 7.89577 26.2359 8.22134 25.7402 8.69932C25.2445 9.17731 24.8966 9.78759 24.7377 10.4576L22.0094 23.967L23.4914 26.9748L21.4941 26.5754L20.4995 31.3728L26.8907 30.5339C27.5669 30.403 28.1908 30.0792 28.687 29.6014C29.1832 29.1236 29.5305 28.5124 29.6868 27.8416L33.921 6.92648L27.5338 7.76133Z" fill="#CE2624"/>
<path d="M9.79049 12.2351L12.331 10.0461L13.4215 4.67749L7.0303 5.51633C6.35911 5.6539 5.74121 5.98041 5.24937 6.45739C4.75753 6.93437 4.41222 7.54197 4.25413 8.20862L0 29.1278L6.39118 28.2889C7.06723 28.1576 7.69088 27.8335 8.18699 27.3559C8.68309 26.8782 9.03049 26.2672 9.18733 25.5966L11.8237 12.6425L9.79049 12.2351Z" fill="#A5D6D7"/>
<path d="M43.8478 16.2655L43.0489 20.26H50.0313L49.4521 23.0561H42.5137L41.4192 28.5326H37.916L40.9239 13.4933H52.2922L51.709 16.2895L43.8478 16.2655Z" fill="#141414"/>
<path d="M54.1051 28.0374C53.2628 27.6425 52.5535 27.011 52.0639 26.2199C51.5737 25.4001 51.3245 24.4587 51.3449 23.5037C51.326 22.2976 51.6383 21.1094 52.2477 20.0684C52.8449 19.0576 53.7068 18.2289 54.7402 17.6717C55.8426 17.0734 57.0812 16.7706 58.3353 16.7929C59.3951 16.7671 60.4465 16.9873 61.407 17.436C62.245 17.8329 62.9498 18.4642 63.4362 19.2535C63.9265 20.0734 64.1757 21.0148 64.1552 21.9698C64.1743 23.1743 63.8665 24.3615 63.2645 25.405C62.6696 26.4178 61.8072 27.247 60.7719 27.8017C59.6684 28.3972 58.4306 28.6997 57.1769 28.6805C56.1171 28.7056 55.0658 28.4855 54.1051 28.0374ZM59.1182 25.429C59.6355 25.101 60.0506 24.6347 60.3165 24.0829C60.6142 23.467 60.762 22.7895 60.7479 22.1056C60.7658 21.764 60.7137 21.4223 60.5949 21.1016C60.4761 20.7808 60.293 20.4877 60.0569 20.2402C59.7979 20.0056 59.4943 19.8256 59.1641 19.711C58.834 19.5964 58.4842 19.5495 58.1355 19.5731C57.5172 19.5575 56.9077 19.7217 56.3809 20.0457C55.8541 20.3698 55.4326 20.8397 55.1676 21.3986C54.8714 22.0069 54.7197 22.6753 54.7243 23.3519C54.7054 23.6948 54.7578 24.038 54.8782 24.3597C54.9985 24.6815 55.1841 24.9748 55.4233 25.2213C55.6842 25.4602 55.9906 25.6442 56.3241 25.7622C56.6576 25.8802 57.0115 25.9299 57.3646 25.9083C57.9829 25.9194 58.5915 25.7531 59.1182 25.429Z" fill="#141414"/>
<path d="M72.1965 17.1444C73.0041 16.885 73.849 16.7608 74.6971 16.7769L74.0979 19.8686C73.6985 19.8407 73.4388 19.8247 73.323 19.8247C72.4469 19.7791 71.5832 20.0467 70.8864 20.5797C70.2139 21.1922 69.776 22.0199 69.6481 22.9204L68.5336 28.5127H65.1782L67.479 16.9567H70.6746L70.395 18.3308C70.887 17.791 71.5063 17.3831 72.1965 17.1444Z" fill="#141414"/>
<path d="M86.6004 23.6313H77.7486C77.8657 25.2104 78.8617 25.9987 80.7365 25.996C81.3101 25.9984 81.88 25.9039 82.4221 25.7164C82.9375 25.5423 83.4148 25.2711 83.8282 24.9175L85.2263 27.1304C84.5676 27.6525 83.817 28.0468 83.0133 28.2928C82.1635 28.5568 81.2788 28.6915 80.3889 28.6923C79.3139 28.7147 78.2472 28.4992 77.2652 28.0612C76.4124 27.6743 75.6946 27.0414 75.2041 26.2437C74.7117 25.4202 74.4611 24.4747 74.4811 23.5154C74.464 22.3099 74.7643 21.121 75.3519 20.0682C75.9214 19.062 76.7577 18.2327 77.7685 17.6715C78.8448 17.0711 80.0594 16.7627 81.2917 16.7767C82.2979 16.7523 83.2956 16.9658 84.2037 17.3999C85.0023 17.7896 85.6679 18.4066 86.117 19.1734C86.5789 19.9914 86.8121 20.9186 86.7921 21.8577C86.7864 22.4538 86.7222 23.0478 86.6004 23.6313ZM79.1427 19.9284C78.5819 20.375 78.1765 20.9873 77.9842 21.678H83.7203C83.7384 21.353 83.6851 21.0281 83.5644 20.7258C83.4436 20.4236 83.2583 20.1514 83.0213 19.9284C82.4996 19.4846 81.8279 19.2573 81.1439 19.2933C80.4241 19.2716 79.7183 19.4956 79.1427 19.9284Z" fill="#141414"/>
<path d="M95.2369 22.7326L98.4605 28.5086H94.9134L93.024 24.9655L89.6926 28.5086H85.8818L91.6619 22.5808L88.5901 16.9526H92.0693L93.8708 20.3439L97.0944 16.9526H100.789L95.2369 22.7326Z" fill="#141414"/>
<path d="M114.538 21.9017C114.902 22.4528 115.086 23.1031 115.065 23.7632C115.1 24.4643 114.947 25.162 114.622 25.7846C114.298 26.4072 113.814 26.9324 113.22 27.3063C111.987 28.1052 110.347 28.5046 108.299 28.5046H100.414L103.421 13.4654H110.683C112.3 13.4654 113.546 13.7636 114.422 14.3601C114.842 14.6344 115.184 15.0132 115.414 15.4592C115.643 15.9053 115.753 16.4033 115.732 16.9046C115.756 17.7463 115.503 18.5724 115.013 19.2574C114.51 19.9346 113.828 20.4587 113.044 20.7713C113.644 20.9904 114.164 21.3841 114.538 21.9017ZM110.791 25.329C111.05 25.1532 111.259 24.914 111.399 24.6342C111.539 24.3545 111.605 24.0436 111.59 23.7312C111.59 22.7006 110.838 22.1853 109.333 22.1853H105.139L104.408 25.9002H108.514C109.313 25.9421 110.107 25.7431 110.791 25.329ZM106.341 16.0937L105.634 19.6368H109.177C109.931 19.6805 110.679 19.4893 111.319 19.0896C111.567 18.9113 111.767 18.6733 111.9 18.3976C112.032 18.1219 112.093 17.8173 112.077 17.5118C112.077 16.5651 111.342 16.0937 109.865 16.0937H106.341Z" fill="#CE2624"/>
<path d="M131 13.3456L123.31 25.6766C122.48 27.024 121.681 27.9561 120.914 28.4727C120.052 29.0108 119.049 29.2792 118.034 29.2437C117.432 29.2425 116.833 29.1482 116.26 28.964C115.759 28.8187 115.293 28.5696 114.894 28.233L116.444 25.8364C116.944 26.302 117.606 26.5555 118.289 26.5434C118.687 26.5533 119.077 26.4403 119.408 26.2198C119.799 25.922 120.127 25.5501 120.374 25.1253L120.482 24.9336L117.818 13.3496H121.169L122.887 21.2107L127.7 13.3496L131 13.3456Z" fill="#CE2624"/>
</svg>
