<svg width="371" height="473" viewBox="0 0 371 473" fill="none" xmlns="http://www.w3.org/2000/svg">
<path d="M74.4903 42.4C79.2503 42.4 81.8103 39.68 81.8103 34.92V31.6H77.0903V35.16C77.0903 37.12 76.1703 38.04 74.6103 38.04C73.0503 38.04 72.1303 37.12 72.1303 35.16V20.84C72.1303 18.88 73.0503 17.96 74.6103 17.96C76.1703 17.96 77.0903 18.88 77.0903 20.84V23.56H81.8103V21.08C81.8103 16.32 79.2503 13.6 74.4903 13.6C69.7303 13.6 67.1303 16.32 67.1303 21.08V34.92C67.1303 39.68 69.7303 42.4 74.4903 42.4ZM96.0331 42H101.313L95.3131 24.36L101.233 14H96.1531L89.8731 25.72V14H84.8731V42H89.8731V33.28L91.9531 29.72L96.0331 42ZM114.578 42H119.658L114.458 14H107.698L102.538 42H107.218L108.058 36.72H113.738L114.578 42ZM108.778 32.4L110.898 19.08L113.018 32.4H108.778ZM130.336 14V24.32C130.336 26.68 129.136 27.76 127.376 27.76C125.536 27.76 124.896 26.52 124.896 24.8V14H119.896V25.44C119.896 30.12 122.056 32.28 125.816 32.28C127.656 32.28 129.216 31.72 130.336 30.64V42H135.336V14H130.336ZM149.93 42H155.01L149.81 14H143.05L137.89 42H142.57L143.41 36.72H149.09L149.93 42ZM144.13 32.4L146.25 19.08L148.37 32.4H144.13ZM165.369 11.88C168.769 11.88 170.689 9.84 170.769 6.72H167.849C167.609 8.2 166.689 8.64 165.369 8.64C164.089 8.64 163.209 8.2 163.009 6.72H160.049C160.169 9.84 161.969 11.88 165.369 11.88ZM168.169 14L162.009 31.8V14H157.529V42H162.569L168.729 24.16V42H173.209V14H168.169ZM181.061 42H186.061V18.44H191.301V14H175.861V18.44H181.061V42ZM193.897 42H207.537V37.56H198.897V29.8H205.777V25.36H198.897V18.44H207.537V14H193.897V42ZM228.377 42H233.657L227.657 24.36L233.577 14H228.497L222.217 25.72V14H217.217V42H222.217V33.28L224.297 29.72L228.377 42ZM236.162 42H241.162V29.8H246.522V42H251.522V14H246.522V25.36H241.162V14H236.162V42ZM266.021 14L259.861 31.8V14H255.381V42H260.421L266.581 24.16V42H271.061V14H266.021ZM274.912 42H279.912V18.44H287.672V14H274.912V42ZM301.183 14L297.903 28.48L294.303 14H289.103L295.303 36.04L295.223 36.4C294.823 37.52 294.143 37.96 292.423 37.96C291.783 37.96 291.023 37.88 290.343 37.64V41.96C291.183 42.28 292.183 42.4 293.183 42.4C297.183 42.4 299.183 40.88 300.143 37.08L305.983 14H301.183Z" fill="white"/>
<path d="M101.748 94H109.468C114.388 94 116.908 91.4 116.908 86.56V84.24C116.908 79.4 114.388 76.8 109.468 76.8H106.748V70.44H114.988V66H101.748V94ZM106.748 89.56V81.24H109.468C111.108 81.24 111.908 82.04 111.908 84V86.8C111.908 88.76 111.108 89.56 109.468 89.56H106.748ZM119.756 94H133.396V89.56H124.756V81.8H131.636V77.36H124.756V70.44H133.396V66H119.756V94ZM143.279 94.4C148.039 94.4 150.599 91.68 150.599 86.92V83.6H145.879V87.16C145.879 89.12 144.959 90.04 143.399 90.04C141.839 90.04 140.919 89.12 140.919 87.16V72.84C140.919 70.88 141.839 69.96 143.399 69.96C144.959 69.96 145.879 70.88 145.879 72.84V75.56H150.599V73.08C150.599 68.32 148.039 65.6 143.279 65.6C138.519 65.6 135.919 68.32 135.919 73.08V86.92C135.919 91.68 138.519 94.4 143.279 94.4ZM153.662 94H158.662V70.44H164.022V94H169.022V66H153.662V94ZM173.081 94.04C178.081 94.04 180.001 91.72 180.161 86.72L180.721 70.44H185.041V94H190.041V66H176.001L175.201 86.6C175.121 88.72 174.641 89.64 172.641 89.64C172.361 89.64 172.001 89.6 171.681 89.52V93.88C172.121 94 172.521 94.04 173.081 94.04ZM204.657 94H209.737L204.537 66H197.777L192.617 94H197.297L198.137 88.72H203.817L204.657 94ZM198.857 84.4L200.977 71.08L203.097 84.4H198.857ZM214.147 94H219.147V70.44H224.387V66H208.947V70.44H214.147V94ZM226.983 94H231.983V81.8H237.343V94H242.343V66H237.343V77.36H231.983V66H226.983V94ZM253.401 94.4C258.321 94.4 261.001 91.6 261.001 86.84V73.16C261.001 68.36 258.321 65.6 253.401 65.6C248.521 65.6 245.841 68.36 245.841 73.16V86.84C245.841 91.6 248.521 94.4 253.401 94.4ZM253.401 89.96C251.761 89.96 250.841 89 250.841 87.08V72.92C250.841 70.96 251.761 70.04 253.401 70.04C255.041 70.04 256.001 70.96 256.001 72.92V87.08C256.001 89 255.041 89.96 253.401 89.96ZM265.483 86.4H269.203L269.843 77V66H264.843V77L265.483 86.4ZM264.843 94H269.843V89.4H264.843V94Z" fill="#333333"/>
<rect x="1.5" y="147.5" width="369" height="54" stroke="white"/>
<path d="M30.389 169.1L26.666 179.215V169.1H25.918V181H26.785L30.508 170.902V181H31.256V169.1H30.389ZM38.8189 172.568L36.5579 179.725L34.2799 172.568H33.0899V181H33.8039V173.486L36.1839 181H36.8639L39.2439 173.486V181H40.0089V172.568H38.8189ZM41.5499 181H42.3319C42.4339 180.626 42.4679 180.303 42.4679 179.895V178.892C42.4679 177.702 43.0119 177.226 44.4229 177.226H45.8509V181H46.6159V172.568H44.2699C42.4849 172.568 41.7029 173.265 41.7029 174.812C41.7029 175.985 42.1789 176.648 43.1819 176.835V176.852C42.1279 177.022 41.7029 177.634 41.7029 178.943V179.895C41.7029 180.235 41.6689 180.626 41.5499 181ZM44.4569 176.563C43.0289 176.563 42.4679 176.104 42.4679 174.931V174.914C42.4679 173.707 42.9779 173.231 44.3209 173.231H45.8509V176.563H44.4569ZM55.1956 172.568L51.9826 179.572V172.568H51.2686V181H52.1016L55.3146 174.013V181H56.0286V172.568H55.1956ZM63.9627 181H64.7447V179.657H65.3907C67.3457 179.657 68.3317 178.586 68.3317 176.478V173.622C68.3317 171.514 67.3457 170.443 65.3907 170.443H64.7447V169.1H63.9627V170.443H63.3167C61.3617 170.443 60.3757 171.514 60.3757 173.622V176.478C60.3757 178.586 61.3617 179.657 63.3167 179.657H63.9627V181ZM63.3167 178.926C61.8377 178.926 61.1577 178.161 61.1577 176.529V173.588C61.1577 171.939 61.8377 171.157 63.3167 171.157H63.9627V178.926H63.3167ZM64.7447 178.926V171.157H65.3907C66.8697 171.157 67.5497 171.939 67.5497 173.588V176.529C67.5497 178.161 66.8697 178.926 65.3907 178.926H64.7447ZM74.3843 181C74.2653 180.524 74.2143 179.776 74.2143 178.841V174.727C74.2143 173.231 73.4663 172.398 72.0043 172.398C70.6103 172.398 69.6923 173.214 69.6923 174.727V174.88H70.4063V174.693C70.4063 173.622 71.0523 173.078 71.9873 173.078C72.9223 173.078 73.4663 173.639 73.4663 174.625V174.863C73.4663 175.543 73.2453 175.73 71.6473 176.427C70.0663 177.124 69.4883 177.855 69.4883 179.13C69.4883 180.388 70.2023 181.17 71.4093 181.17C72.4293 181.17 73.1773 180.643 73.5513 179.708C73.5683 180.269 73.6023 180.745 73.6703 181H74.3843ZM71.5963 180.49C70.7293 180.49 70.2533 179.963 70.2533 179.062C70.2533 178.144 70.7123 177.549 71.8683 177.039C72.8713 176.597 73.2963 176.376 73.4663 176.087V178.059C73.4663 179.555 72.7183 180.49 71.5963 180.49ZM81.7505 172.568L79.4895 179.725L77.2115 172.568H76.0215V181H76.7355V173.486L79.1155 181H79.7955L82.1755 173.486V181H82.9405V172.568H81.7505ZM88.6975 172.568L85.4845 179.572V172.568H84.7705V181H85.6035L88.8165 174.013V181H89.5305V172.568H88.6975ZM91.3104 181.051C92.5854 181.051 93.0274 180.32 93.0954 179.028L93.4014 173.265H95.9344V181H96.6994V172.568H92.6874L92.3644 178.892C92.3134 179.98 92.0074 180.354 91.2594 180.354C91.0724 180.354 90.9364 180.337 90.8344 180.303V180.983C90.9364 181.017 91.1064 181.051 91.3104 181.051ZM102.46 172.568L99.2472 179.572V172.568H98.5332V181H99.3662L102.579 174.013V181H103.293V172.568H102.46ZM104.835 181H105.617C105.719 180.626 105.753 180.303 105.753 179.895V178.892C105.753 177.702 106.297 177.226 107.708 177.226H109.136V181H109.901V172.568H107.555C105.77 172.568 104.988 173.265 104.988 174.812C104.988 175.985 105.464 176.648 106.467 176.835V176.852C105.413 177.022 104.988 177.634 104.988 178.943V179.895C104.988 180.235 104.954 180.626 104.835 181ZM107.742 176.563C106.314 176.563 105.753 176.104 105.753 174.931V174.914C105.753 173.707 106.263 173.231 107.606 173.231H109.136V176.563H107.742Z" fill="white"/>
<rect x="1.5" y="222.5" width="369" height="54" stroke="white"/>
<path d="M25.918 256H30.576V255.286H26.7V250.152H29.913V249.438H26.7V244.814H30.576V244.1H25.918V256ZM38.2696 247.398C37.3686 247.398 36.6716 247.908 36.3146 248.792C36.0936 247.857 35.4646 247.398 34.5126 247.398C33.6116 247.398 32.9146 247.908 32.5576 248.792L32.5406 247.568H31.8946V256H32.6596V250.492C32.6596 248.996 33.3566 248.078 34.3426 248.078C35.2266 248.078 35.6516 248.673 35.6516 249.727V256H36.4166V250.492C36.4166 248.996 37.1136 248.078 38.0996 248.078C38.9836 248.078 39.4086 248.673 39.4086 249.727V256H40.1736V249.659C40.1736 248.146 39.4766 247.398 38.2696 247.398ZM46.4605 256C46.3415 255.524 46.2905 254.776 46.2905 253.841V249.727C46.2905 248.231 45.5425 247.398 44.0805 247.398C42.6865 247.398 41.7685 248.214 41.7685 249.727V249.88H42.4825V249.693C42.4825 248.622 43.1285 248.078 44.0635 248.078C44.9985 248.078 45.5425 248.639 45.5425 249.625V249.863C45.5425 250.543 45.3215 250.73 43.7235 251.427C42.1425 252.124 41.5645 252.855 41.5645 254.13C41.5645 255.388 42.2785 256.17 43.4855 256.17C44.5055 256.17 45.2535 255.643 45.6275 254.708C45.6445 255.269 45.6785 255.745 45.7465 256H46.4605ZM43.6725 255.49C42.8055 255.49 42.3295 254.963 42.3295 254.062C42.3295 253.144 42.7885 252.549 43.9445 252.039C44.9475 251.597 45.3725 251.376 45.5425 251.087V253.059C45.5425 254.555 44.7945 255.49 43.6725 255.49ZM48.0977 246.191H48.8627V244.491H48.0977V246.191ZM48.0977 256H48.8627V247.568H48.0977V256ZM50.7041 256H51.4691V244.1H50.7041V256Z" fill="white"/>
<rect x="1.5" y="294.5" width="369" height="54" stroke="white"/>
<path d="M1 295C1 294.448 1.44772 294 2 294H82V349H2C1.44771 349 1 348.552 1 348V295Z" fill="white"/>
<path d="M23.043 325.773H23.757V323.24H26.239V322.543H23.757V320.027H23.043V322.543H20.561V323.24H23.043V325.773ZM29.9516 328.17C31.7876 328.17 32.5526 327.048 32.5526 325.314V324.158C32.5526 322.917 32.0936 322.033 31.0736 321.761V321.744C32.0086 321.455 32.5356 320.571 32.5356 319.313V318.786C32.5356 317.001 31.6856 315.93 29.9856 315.93C28.1666 315.93 27.4186 317.052 27.4186 318.786V319.347H28.1666V318.735C28.1666 317.46 28.6426 316.644 29.9516 316.644C31.1586 316.644 31.7536 317.426 31.7536 318.769V319.449C31.7536 320.69 31.0906 321.421 30.0026 321.421H29.2036V322.152H29.9856C31.1586 322.152 31.7706 322.815 31.7706 324.158V325.28C31.7706 326.64 31.2606 327.456 29.9346 327.456C28.5576 327.456 28.0986 326.521 28.0986 325.348V324.498H27.3506V325.314C27.3506 326.929 28.0646 328.17 29.9516 328.17ZM36.5974 328.17C38.4504 328.17 39.3004 327.048 39.3004 325.314V324.158C39.3004 322.968 38.8584 322.084 37.8214 321.761V321.744C38.7224 321.421 39.2324 320.605 39.2324 319.364V318.735C39.2324 316.95 38.3484 315.93 36.5974 315.93C34.8464 315.93 33.9624 316.95 33.9624 318.735V319.364C33.9624 320.605 34.4724 321.421 35.3734 321.744V321.761C34.3364 322.084 33.8944 322.968 33.8944 324.158V325.314C33.8944 327.048 34.7444 328.17 36.5974 328.17ZM36.5974 321.421C35.3734 321.421 34.7444 320.69 34.7444 319.5V318.718C34.7444 317.392 35.3394 316.644 36.5974 316.644C37.8554 316.644 38.4504 317.392 38.4504 318.718V319.5C38.4504 320.69 37.8214 321.421 36.5974 321.421ZM36.5974 327.456C35.2374 327.456 34.6764 326.589 34.6764 325.28V324.09C34.6764 322.832 35.3224 322.152 36.5974 322.152C37.8724 322.152 38.5184 322.832 38.5184 324.09V325.28C38.5184 326.589 37.9574 327.456 36.5974 327.456ZM43.3547 328.17C45.0547 328.17 45.9897 327.167 45.9897 325.297V318.803C45.9897 316.933 45.0547 315.93 43.3547 315.93C41.6887 315.93 40.7537 316.933 40.7537 318.803V325.297C40.7537 327.167 41.6887 328.17 43.3547 328.17ZM43.3547 327.456C42.1817 327.456 41.5357 326.759 41.5357 325.348V318.752C41.5357 317.341 42.1817 316.644 43.3547 316.644C44.5617 316.644 45.2077 317.341 45.2077 318.752V325.348C45.2077 326.759 44.5617 327.456 43.3547 327.456Z" fill="#A6A5A5"/>
<path d="M61.1237 320C61.924 320 62.4 320.893 61.9538 321.558L59.8064 324.755C59.4085 325.347 58.536 325.344 58.1423 324.749L56.0268 321.552C55.5869 320.887 56.0636 320 56.8608 320L61.1237 320Z" fill="#A6A5A5"/>
<path d="M104.618 329H105.4V317.814H107.661V317.1H102.357V317.814H104.618V329ZM110.225 320.398C108.661 320.398 107.845 321.367 107.845 323.101V326.467C107.845 328.201 108.661 329.17 110.225 329.17C111.772 329.17 112.622 328.201 112.622 326.467V326.331H111.874V326.535C111.874 327.827 111.313 328.49 110.225 328.49C109.154 328.49 108.61 327.827 108.61 326.535V324.801H112.622V323.101C112.622 321.367 111.772 320.398 110.225 320.398ZM108.61 324.121V323.033C108.61 321.741 109.154 321.078 110.225 321.078C111.296 321.078 111.874 321.741 111.874 323.033V324.121H108.61ZM114.007 329.051C115.282 329.051 115.724 328.32 115.792 327.028L116.098 321.265H118.631V329H119.396V320.568H115.384L115.061 326.892C115.01 327.98 114.704 328.354 113.956 328.354C113.769 328.354 113.633 328.337 113.531 328.303V328.983C113.633 329.017 113.803 329.051 114.007 329.051ZM123.457 320.398C121.893 320.398 121.077 321.367 121.077 323.101V326.467C121.077 328.201 121.893 329.17 123.457 329.17C125.004 329.17 125.854 328.201 125.854 326.467V326.331H125.106V326.535C125.106 327.827 124.545 328.49 123.457 328.49C122.386 328.49 121.842 327.827 121.842 326.535V324.801H125.854V323.101C125.854 321.367 125.004 320.398 123.457 320.398ZM121.842 324.121V323.033C121.842 321.741 122.386 321.078 123.457 321.078C124.528 321.078 125.106 321.741 125.106 323.033V324.121H121.842ZM130.26 331.635H131.025V329H131.314C133.167 329 134.034 328.065 134.034 326.246V323.322C134.034 321.486 133.15 320.568 131.314 320.568H131.025V317.1H130.26V320.568H129.971C128.135 320.568 127.268 321.503 127.268 323.322V326.246C127.268 328.082 128.152 329 129.971 329H130.26V331.635ZM129.971 328.337C128.322 328.337 128.033 327.334 128.033 326.348V323.237C128.033 321.52 129.019 321.231 129.971 321.231H130.26V328.337H129.971ZM131.025 328.337V321.231H131.314C133.167 321.231 133.269 322.506 133.269 323.237V326.348C133.269 328.048 132.283 328.337 131.314 328.337H131.025ZM137.899 329.17C139.446 329.17 140.279 328.201 140.279 326.467V323.101C140.279 321.367 139.446 320.398 137.899 320.398C136.352 320.398 135.519 321.367 135.519 323.101V326.467C135.519 328.201 136.352 329.17 137.899 329.17ZM137.899 328.49C136.794 328.49 136.284 327.776 136.284 326.535V323.033C136.284 321.792 136.794 321.078 137.899 321.078C139.004 321.078 139.514 321.792 139.514 323.033V326.535C139.514 327.776 139.004 328.49 137.899 328.49ZM145.943 320.568V324.308H142.713V320.568H141.948V329H142.713V324.971H145.943V329H146.708V320.568H145.943Z" fill="white"/>
<rect y="371" width="370" height="63" fill="#CE2624"/>
<path d="M150.352 411.24C153.184 411.24 154.696 409.608 154.696 406.8V404.808H152.128V406.92C152.128 408.216 151.48 408.864 150.424 408.864C149.368 408.864 148.72 408.216 148.72 406.92V398.28C148.72 396.984 149.368 396.336 150.424 396.336C151.48 396.336 152.128 396.984 152.128 398.28V399.888H154.696V398.4C154.696 395.592 153.184 393.96 150.352 393.96C147.544 393.96 145.984 395.592 145.984 398.4V406.8C145.984 409.608 147.544 411.24 150.352 411.24ZM163.47 411H166.35L162.654 400.44L166.302 394.2H163.518L159.366 401.592V394.2H156.63V411H159.366V405.696L160.806 403.32L163.47 411ZM174.55 411H177.334L174.094 394.2H170.398L167.182 411H169.726L170.302 407.736H173.998L174.55 411ZM170.71 405.36L172.15 397.032L173.59 405.36H170.71ZM183.958 394.2V400.296C183.958 401.856 183.142 402.6 181.942 402.6C180.742 402.6 180.262 401.832 180.262 400.656V394.2H177.55V401.016C177.55 403.776 178.846 405.072 181.102 405.072C182.278 405.072 183.286 404.688 183.958 403.992V411H186.694V394.2H183.958ZM195.691 411H198.475L195.235 394.2H191.539L188.323 411H190.867L191.443 407.736H195.139L195.691 411ZM191.851 405.36L193.291 397.032L194.731 405.36H191.851ZM201.219 411H203.931V396.624H207.147V394.2H198.003V396.624H201.219V411ZM208.802 411H213.17C216.098 411 217.586 409.464 217.586 406.56V405.12C217.586 402.192 216.098 400.68 213.17 400.68H211.538V394.2H208.802V411ZM211.538 408.576V403.104H213.17C214.322 403.104 214.85 403.656 214.85 404.976V406.704C214.85 408.024 214.322 408.576 213.17 408.576H211.538Z" fill="white"/>
<path d="M58.504 468V456.8H56.2C54.472 456.8 53.752 457.568 53.752 459.328V460.016C53.752 461.312 54.2 462.064 55.192 462.304V462.32C54.184 462.528 53.752 463.264 53.752 464.608V466.656C53.752 467.12 53.72 467.632 53.608 468H54.36C54.44 467.664 54.488 467.264 54.488 466.656V464.576C54.488 463.2 55.032 462.704 56.344 462.704H57.768V468H58.504ZM57.768 462.016H56.376C55.08 462.016 54.488 461.472 54.488 460.144V459.392C54.488 458.032 54.984 457.472 56.216 457.472H57.768V462.016ZM67.3113 460.064H62.8953V468H63.6153V460.688H66.5913V468H67.3113V460.064ZM71.6119 459.904C70.7159 459.904 70.0119 460.416 69.6599 461.296L69.6439 460.064H69.0359V470.48H69.7559V466.976C70.1239 467.728 70.7799 468.16 71.6119 468.16C72.8279 468.16 73.5159 467.408 73.5159 465.872V462.176C73.5159 460.64 72.8279 459.904 71.6119 459.904ZM72.7959 465.808C72.7959 466.896 72.3799 467.52 71.4519 467.52C70.4759 467.52 69.7559 466.656 69.7559 465.248V462.816C69.7559 461.408 70.4759 460.544 71.4519 460.544C72.3799 460.544 72.7959 461.168 72.7959 462.256V465.808ZM78.81 460.064L75.786 466.656V460.064H75.114V468H75.898L78.922 461.424V468H79.594V460.064H78.81ZM85.0771 460.064V463.584H82.0371V460.064H81.3171V468H82.0371V464.208H85.0771V468H85.7971V460.064H85.0771ZM91.2163 460.064L88.1923 466.656V460.064H87.5203V468H88.3043L91.3283 461.424V468H92.0003V460.064H91.2163ZM99.1154 460.064L96.9874 466.8L94.8434 460.064H93.7234V468H94.3954V460.928L96.6354 468H97.2754L99.5154 460.928V468H100.235V460.064H99.1154ZM106.214 468C106.102 467.552 106.054 466.848 106.054 465.968V462.096C106.054 460.688 105.35 459.904 103.974 459.904C102.662 459.904 101.798 460.672 101.798 462.096V462.24H102.47V462.064C102.47 461.056 103.078 460.544 103.958 460.544C104.838 460.544 105.35 461.072 105.35 462V462.224C105.35 462.864 105.142 463.04 103.638 463.696C102.15 464.352 101.606 465.04 101.606 466.24C101.606 467.424 102.278 468.16 103.414 468.16C104.374 468.16 105.078 467.664 105.43 466.784C105.446 467.312 105.478 467.76 105.542 468H106.214ZM103.59 467.52C102.774 467.52 102.326 467.024 102.326 466.176C102.326 465.312 102.758 464.752 103.846 464.272C104.79 463.856 105.19 463.648 105.35 463.376V465.232C105.35 466.64 104.646 467.52 103.59 467.52ZM112.459 459.904C111.003 459.904 110.219 460.816 110.219 462.448V463.584H108.475V460.064H107.755V468H108.475V464.208H110.219V465.616C110.219 467.248 111.003 468.16 112.459 468.16C113.915 468.16 114.699 467.248 114.699 465.616V462.448C114.699 460.816 113.915 459.904 112.459 459.904ZM113.979 465.68C113.979 466.848 113.499 467.52 112.459 467.52C111.419 467.52 110.939 466.848 110.939 465.68V462.384C110.939 461.216 111.419 460.544 112.459 460.544C113.499 460.544 113.979 461.216 113.979 462.384V465.68ZM119.422 470.64C120.334 470.64 120.782 470.208 121.054 469.104L123.326 460.064H122.638L120.99 466.72L119.182 460.064H118.446L120.638 467.968L120.366 469.024C120.174 469.792 119.918 470 119.358 470C119.102 470 118.894 469.952 118.702 469.84V470.48C118.878 470.592 119.15 470.64 119.422 470.64ZM126.569 468.16C128.041 468.16 128.745 467.248 128.745 465.648V465.264H128.057V465.712C128.057 466.88 127.593 467.52 126.569 467.52C125.545 467.52 125.065 466.88 125.065 465.712V462.352C125.065 461.168 125.545 460.544 126.569 460.544C127.593 460.544 128.057 461.168 128.057 462.352V462.624H128.745V462.416C128.745 460.816 128.041 459.904 126.569 459.904C125.113 459.904 124.345 460.784 124.345 462.416V465.648C124.345 467.264 125.113 468.16 126.569 468.16ZM130.129 468.048C131.329 468.048 131.745 467.36 131.809 466.144L132.097 460.72H134.481V468H135.201V460.064H131.424L131.121 466.016C131.073 467.04 130.785 467.392 130.081 467.392C129.905 467.392 129.777 467.376 129.681 467.344V467.984C129.777 468.016 129.937 468.048 130.129 468.048ZM139.007 468.16C140.463 468.16 141.247 467.248 141.247 465.616V462.448C141.247 460.816 140.463 459.904 139.007 459.904C137.551 459.904 136.767 460.816 136.767 462.448V465.616C136.767 467.248 137.551 468.16 139.007 468.16ZM139.007 467.52C137.967 467.52 137.487 466.848 137.487 465.68V462.384C137.487 461.216 137.967 460.544 139.007 460.544C140.047 460.544 140.527 461.216 140.527 462.384V465.68C140.527 466.848 140.047 467.52 139.007 467.52ZM142.817 468H145.185C146.785 468 147.489 467.36 147.489 465.92V465.728C147.489 464.928 147.217 464.176 146.065 463.936V463.92C146.929 463.712 147.313 463.136 147.313 462.16V462.032C147.313 460.496 146.385 460.064 145.025 460.064H142.817V468ZM143.537 463.664V460.688H145.009C146.017 460.688 146.593 461.024 146.593 462.096V462.224C146.593 463.344 145.969 463.664 144.865 463.664H143.537ZM143.537 467.376V464.288H144.897C146.385 464.288 146.769 464.848 146.769 465.68V465.872C146.769 466.928 146.305 467.376 145.185 467.376H143.537ZM152.607 460.064L149.583 466.656V460.064H148.911V468H149.695L152.719 461.424V468H153.391V460.064H152.607ZM154.842 468H155.578C155.674 467.648 155.706 467.344 155.706 466.96V466.016C155.706 464.896 156.218 464.448 157.546 464.448H158.89V468H159.61V460.064H157.402C155.722 460.064 154.986 460.72 154.986 462.176C154.986 463.28 155.434 463.904 156.378 464.08V464.096C155.386 464.256 154.986 464.832 154.986 466.064V466.96C154.986 467.28 154.954 467.648 154.842 468ZM157.578 463.824C156.234 463.824 155.706 463.392 155.706 462.288V462.272C155.706 461.136 156.186 460.688 157.45 460.688H158.89V463.824H157.578ZM166.069 468.16C167.525 468.16 168.309 467.248 168.309 465.616V462.448C168.309 460.816 167.525 459.904 166.069 459.904C164.613 459.904 163.829 460.816 163.829 462.448V465.616C163.829 467.248 164.613 468.16 166.069 468.16ZM166.069 467.52C165.029 467.52 164.549 466.848 164.549 465.68V462.384C164.549 461.216 165.029 460.544 166.069 460.544C167.109 460.544 167.589 461.216 167.589 462.384V465.68C167.589 466.848 167.109 467.52 166.069 467.52ZM172.376 460.224C171.544 460.224 170.888 460.656 170.52 461.408V460.832C170.52 459.136 171.32 458.752 172.344 458.256C172.792 458.048 173.272 457.808 173.768 457.44V456.64C173.208 457.072 172.648 457.344 172.12 457.584C170.84 458.208 169.8 458.704 169.8 461.072V465.616C169.8 467.248 170.584 468.16 172.056 468.16C173.512 468.16 174.28 467.248 174.28 465.616V462.496C174.28 460.96 173.592 460.224 172.376 460.224ZM173.56 465.68C173.56 466.864 173.064 467.52 172.056 467.52C171.032 467.52 170.52 466.864 170.52 465.68V463.136C170.52 461.728 171.24 460.864 172.216 460.864C173.144 460.864 173.56 461.488 173.56 462.576V465.68ZM178.44 459.904C177.544 459.904 176.84 460.416 176.488 461.296L176.472 460.064H175.864V470.48H176.584V466.976C176.952 467.728 177.608 468.16 178.44 468.16C179.656 468.16 180.344 467.408 180.344 465.872V462.176C180.344 460.64 179.656 459.904 178.44 459.904ZM179.624 465.808C179.624 466.896 179.208 467.52 178.28 467.52C177.304 467.52 176.584 466.656 176.584 465.248V462.816C176.584 461.408 177.304 460.544 178.28 460.544C179.208 460.544 179.624 461.168 179.624 462.256V465.808ZM186.198 468C186.086 467.552 186.038 466.848 186.038 465.968V462.096C186.038 460.688 185.334 459.904 183.958 459.904C182.646 459.904 181.782 460.672 181.782 462.096V462.24H182.454V462.064C182.454 461.056 183.062 460.544 183.942 460.544C184.822 460.544 185.334 461.072 185.334 462V462.224C185.334 462.864 185.126 463.04 183.622 463.696C182.134 464.352 181.59 465.04 181.59 466.24C181.59 467.424 182.262 468.16 183.398 468.16C184.358 468.16 185.062 467.664 185.414 466.784C185.43 467.312 185.462 467.76 185.526 468H186.198ZM183.574 467.52C182.758 467.52 182.31 467.024 182.31 466.176C182.31 465.312 182.742 464.752 183.83 464.272C184.774 463.856 185.174 463.648 185.334 463.376V465.232C185.334 466.64 184.63 467.52 183.574 467.52ZM190.235 460.224C189.403 460.224 188.747 460.656 188.379 461.408V460.832C188.379 459.136 189.179 458.752 190.203 458.256C190.651 458.048 191.131 457.808 191.627 457.44V456.64C191.067 457.072 190.507 457.344 189.979 457.584C188.699 458.208 187.659 458.704 187.659 461.072V465.616C187.659 467.248 188.443 468.16 189.915 468.16C191.371 468.16 192.139 467.248 192.139 465.616V462.496C192.139 460.96 191.451 460.224 190.235 460.224ZM191.419 465.68C191.419 466.864 190.923 467.52 189.915 467.52C188.891 467.52 188.379 466.864 188.379 465.68V463.136C188.379 461.728 189.099 460.864 190.075 460.864C191.003 460.864 191.419 461.488 191.419 462.576V465.68ZM195.803 468.16C197.259 468.16 198.043 467.248 198.043 465.616V462.448C198.043 460.816 197.259 459.904 195.803 459.904C194.347 459.904 193.563 460.816 193.563 462.448V465.616C193.563 467.248 194.347 468.16 195.803 468.16ZM195.803 467.52C194.763 467.52 194.283 466.848 194.283 465.68V462.384C194.283 461.216 194.763 460.544 195.803 460.544C196.843 460.544 197.323 461.216 197.323 462.384V465.68C197.323 466.848 196.843 467.52 195.803 467.52ZM201.15 468H201.87V460.688H203.934V460.064H199.102V460.688H201.15V468ZM209.065 468H209.865L207.577 463.088L209.769 460.064H208.969L205.849 464.448V460.064H205.129V468H205.849V465.456L207.081 463.744L209.065 468ZM214.763 460.064L211.739 466.656V460.064H211.067V468H211.851L214.875 461.424V468H215.547V460.064H214.763ZM224.343 460.064H219.927V468H220.647V460.688H223.623V468H224.343V460.064ZM228.163 459.904C226.691 459.904 225.923 460.816 225.923 462.448V465.616C225.923 467.248 226.691 468.16 228.163 468.16C229.619 468.16 230.419 467.248 230.419 465.616V465.488H229.715V465.68C229.715 466.896 229.187 467.52 228.163 467.52C227.155 467.52 226.643 466.896 226.643 465.68V464.048H230.419V462.448C230.419 460.816 229.619 459.904 228.163 459.904ZM226.643 463.408V462.384C226.643 461.168 227.155 460.544 228.163 460.544C229.171 460.544 229.715 461.168 229.715 462.384V463.408H226.643ZM234.503 459.904C233.607 459.904 232.903 460.416 232.551 461.296L232.535 460.064H231.927V470.48H232.647V466.976C233.015 467.728 233.671 468.16 234.503 468.16C235.719 468.16 236.407 467.408 236.407 465.872V462.176C236.407 460.64 235.719 459.904 234.503 459.904ZM235.687 465.808C235.687 466.896 235.271 467.52 234.343 467.52C233.367 467.52 232.647 466.656 232.647 465.248V462.816C232.647 461.408 233.367 460.544 234.343 460.544C235.271 460.544 235.687 461.168 235.687 462.256V465.808ZM240.085 468.16C241.557 468.16 242.261 467.248 242.261 465.648V465.264H241.573V465.712C241.573 466.88 241.109 467.52 240.085 467.52C239.061 467.52 238.581 466.88 238.581 465.712V462.352C238.581 461.168 239.061 460.544 240.085 460.544C241.109 460.544 241.573 461.168 241.573 462.352V462.624H242.261V462.416C242.261 460.816 241.557 459.904 240.085 459.904C238.629 459.904 237.861 460.784 237.861 462.416V465.648C237.861 467.264 238.629 468.16 240.085 468.16ZM245.772 468.16C247.228 468.16 248.012 467.248 248.012 465.616V462.448C248.012 460.816 247.228 459.904 245.772 459.904C244.316 459.904 243.532 460.816 243.532 462.448V465.616C243.532 467.248 244.316 468.16 245.772 468.16ZM245.772 467.52C244.732 467.52 244.252 466.848 244.252 465.68V462.384C244.252 461.216 244.732 460.544 245.772 460.544C246.812 460.544 247.292 461.216 247.292 462.384V465.68C247.292 466.848 246.812 467.52 245.772 467.52ZM253.343 460.064V463.584H250.303V460.064H249.583V468H250.303V464.208H253.343V468H254.063V460.064H253.343ZM260.042 468C259.93 467.552 259.882 466.848 259.882 465.968V462.096C259.882 460.688 259.178 459.904 257.802 459.904C256.49 459.904 255.626 460.672 255.626 462.096V462.24H256.298V462.064C256.298 461.056 256.906 460.544 257.786 460.544C258.666 460.544 259.178 461.072 259.178 462V462.224C259.178 462.864 258.97 463.04 257.466 463.696C255.978 464.352 255.434 465.04 255.434 466.24C255.434 467.424 256.106 468.16 257.242 468.16C258.202 468.16 258.906 467.664 259.258 466.784C259.274 467.312 259.306 467.76 259.37 468H260.042ZM257.418 467.52C256.602 467.52 256.154 467.024 256.154 466.176C256.154 465.312 256.586 464.752 257.674 464.272C258.618 463.856 259.018 463.648 259.178 463.376V465.232C259.178 466.64 258.474 467.52 257.418 467.52ZM261.535 468.048C262.735 468.048 263.151 467.36 263.215 466.144L263.503 460.72H265.887V468H266.607V460.064H262.831L262.527 466.016C262.479 467.04 262.191 467.392 261.487 467.392C261.311 467.392 261.183 467.376 261.087 467.344V467.984C261.183 468.016 261.343 468.048 261.535 468.048ZM268.333 460.064V468H270.573C272.413 468 273.021 466.976 273.021 465.616C273.021 463.936 272.093 463.264 270.573 463.264H269.053V460.064H268.333ZM269.053 463.936H270.573C271.901 463.936 272.301 464.624 272.301 465.616C272.301 466.912 271.661 467.344 270.573 467.344H269.053V463.936ZM278.108 460.064V463.584H275.068V460.064H274.348V468H275.068V464.208H278.108V468H278.828V460.064H278.108ZM280.552 460.064V468H282.792C284.632 468 285.24 466.976 285.24 465.616C285.24 463.936 284.312 463.264 282.792 463.264H281.272V460.064H280.552ZM286.568 468H287.288V460.064H286.568V468ZM281.272 463.936H282.792C284.12 463.936 284.52 464.624 284.52 465.616C284.52 466.912 283.88 467.344 282.792 467.344H281.272V463.936ZM288.54 468H289.26L290.988 464.512L292.7 468H293.5L291.452 463.936L293.404 460.064H292.684L291.036 463.344L289.404 460.064H288.62L290.572 463.936L288.54 468ZM302.307 467.376V460.064H298.547L298.211 465.984C298.163 466.72 298.035 467.104 297.699 467.376H296.899V469.504H297.619V468H302.291V469.504H303.011V467.376H302.307ZM298.467 467.376C298.787 467.088 298.915 466.624 298.947 465.952L299.219 460.688H301.587V467.376H298.467ZM308.479 468C308.367 467.552 308.319 466.848 308.319 465.968V462.096C308.319 460.688 307.615 459.904 306.239 459.904C304.927 459.904 304.063 460.672 304.063 462.096V462.24H304.735V462.064C304.735 461.056 305.343 460.544 306.223 460.544C307.103 460.544 307.615 461.072 307.615 462V462.224C307.615 462.864 307.407 463.04 305.903 463.696C304.415 464.352 303.871 465.04 303.871 466.24C303.871 467.424 304.543 468.16 305.679 468.16C306.639 468.16 307.343 467.664 307.695 466.784C307.711 467.312 307.743 467.76 307.807 468H308.479ZM305.855 467.52C305.039 467.52 304.591 467.024 304.591 466.176C304.591 465.312 305.023 464.752 306.111 464.272C307.055 463.856 307.455 463.648 307.615 463.376V465.232C307.615 466.64 306.911 467.52 305.855 467.52ZM313.78 460.064V463.584H310.74V460.064H310.02V468H310.74V464.208H313.78V468H314.5V460.064H313.78ZM319.983 460.064V463.584H316.943V460.064H316.223V468H316.943V464.208H319.983V468H320.703V460.064H319.983ZM322.427 460.064V468H324.667C326.507 468 327.115 466.976 327.115 465.616C327.115 463.936 326.187 463.264 324.667 463.264H323.147V460.064H322.427ZM328.443 468H329.163V460.064H328.443V468ZM323.147 463.936H324.667C325.995 463.936 326.395 464.624 326.395 465.616C326.395 466.912 325.755 467.344 324.667 467.344H323.147V463.936ZM330.415 468H331.135L332.863 464.512L334.575 468H335.375L333.327 463.936L335.279 460.064H334.559L332.911 463.344L331.279 460.064H330.495L332.447 463.936L330.415 468Z" fill="white"/>
<path d="M118.094 469.28H335.759V469.92H118.094V469.28Z" fill="white"/>
<rect x="27.5" y="456.5" width="13" height="13" stroke="white"/>
<path d="M30 462.368L32.7586 465C34.4138 463.246 37.1724 460.78 38 460" stroke="white" stroke-linejoin="round"/>
</svg>
