<svg width="60" height="60" viewBox="0 0 60 60" fill="none" xmlns="http://www.w3.org/2000/svg">
<path d="M40.8978 7.4708C37.3356 5.46672 33.0161 5.38513 28.0592 7.22855C23.1024 9.07196 19.8859 11.9562 18.4987 15.8009C17.104 19.6667 18.0137 23.2497 18.6801 25.0415L26.3999 45.7996C27.0662 47.5914 28.7189 50.8982 32.3006 52.9132C35.8629 54.9173 40.1823 54.9988 45.1392 53.1554C50.096 51.312 53.3126 48.4279 54.6997 44.5832C56.0944 40.7174 55.1847 37.1343 54.5184 35.3425L46.7986 14.5845C46.1322 12.7926 44.4796 9.48586 40.8978 7.4708ZM34.0097 23.2289C32.9825 23.6109 31.8339 23.0798 31.449 22.045L29.9535 18.0236C29.5687 16.9888 30.0912 15.8363 31.1183 15.4543C32.1455 15.0723 33.2941 15.6033 33.679 16.6381L35.1745 20.6596C35.5593 21.6943 35.0368 22.8469 34.0097 23.2289ZM53.0478 35.8894C53.7373 37.7434 56.57 47.2179 44.5882 51.6739C32.6064 56.1299 28.5599 47.1067 27.8704 45.2527L20.1507 24.4946C19.4756 22.6794 16.7484 13.5598 27.8799 8.99694L29.8631 14.3296C28.5036 15.2203 27.8889 16.9733 28.4829 18.5705L29.9785 22.5919C30.5724 24.1891 32.1832 25.1145 33.7943 24.9005L36.058 30.9873C36.2102 31.3965 36.6626 31.6057 37.0688 31.4546C37.4749 31.3036 37.6808 30.8496 37.5286 30.4404L35.2649 24.3536C36.6244 23.4628 37.2391 21.7098 36.6451 20.1127L35.1496 16.0912C34.5556 14.4941 32.9448 13.5687 31.3337 13.7827L29.3505 8.45004C40.7586 4.63062 44.6529 13.3161 45.328 15.1314L53.0478 35.8894Z" fill="#3F9BDE"/>
<path d="M3.5 56.0001L1.23407 26.0897C1.16074 25.1218 2.37072 24.6275 2.99607 25.37L7.283 30.4599C7.80018 31.0739 8.79363 30.8589 9.01064 30.086L11 23.0001" stroke="#3F9BDE" stroke-width="1.4"/>
</svg>
